<svg width="250" height="250" viewBox="0 0 250 250" fill="none" xmlns="http://www.w3.org/2000/svg">
<style>@media (prefers-color-scheme:dark){path{fill:#fff}}</style>
<g clip-path="url(#clip0_1_2)">
<path d="M149.818 100.934H177.109V160.223L210.082 100.934H247V191H219.673V131.71L186.591 191H149.818V100.934Z" fill="#264871"/>
<path d="M88.8666 58H2V85.5638H25.8883V191H56.0021V141.604H88.8666C117.822 141.604 133.096 121.269 133.096 99.6195C133.205 77.2034 118.329 58 88.8666 58ZM56.0021 114.04V85.5638H87.0931C96.8655 85.5638 103.091 90.675 103.091 99.8021C103.091 108.929 96.8655 114.04 87.0931 114.04H56.0021Z" fill="#264871"/>
<path d="M196.143 62.2276L149.918 74.4874V90.9749L196.143 84.3409V62.2276Z" fill="#E40038"/>
</g>
<defs>
<clipPath id="clip0_1_2">
<rect width="250" height="250" fill="white"/>
</clipPath>
</defs>
</svg>
