<svg fill="none" height="24" viewBox="0 0 153 24" width="153" xmlns="http://www.w3.org/2000/svg"><g fill="#fff"><path d="m23.193 6.69609h4.282v9.24701l5.1736-9.24701h5.7926v14.04701h-4.2877v-9.247l-5.1906 9.247h-5.7699z"/><path d="m70.1243 16.8883h1.7435c.4126-.9704.721-1.982.92-3.0178.1759-1.1969.2537-2.4061.2328-3.6157v-3.55871h11.2615v10.19221h1.8911v7.1117h-3.8277v-3.2569h-8.3765v3.2569h-3.8447zm10.4324 0v-6.7815h-3.8107v1.0078c.0615 1.9605-.2289 3.9162-.8575 5.7737z"/><path d="m88.5356 6.69609h8.3652c2.5669 0 4.3392 1.54306 4.3392 3.76371.017.6416-.149 1.2748-.478 1.8254s-.8072.9958-1.3795 1.2835c.7125.1798 1.3395.6051 1.7715 1.2015.432.5963.641 1.3259.591 2.0611 0 2.3972-2.0104 3.9118-4.9918 3.9118h-8.2176zm7.326 5.26121c.9484 0 1.4197-.3587 1.4197-1.042s-.4997-1.0363-1.4197-1.0363h-3.186v2.0783zm.477 5.5687c.8575 0 1.4197-.4783 1.4197-1.2185s-.5679-1.2128-1.4197-1.2128h-3.663v2.4313z"/><path d="m109.605 12.1509c.776-.001 1.55.0888 2.305.2676l1.006.2335v-.6947c0-1.3324-.886-2.12954-2.454-2.12954-1.567 0-2.425.74024-2.686 1.89604l-3.754-1.0078c.858-2.63629 3.129-4.29892 6.469-4.29892 4.492 0 6.707 2.01566 6.707 5.77932v8.541h-3.976v-1.9474c-1.221 1.657-2.481 2.2776-4.622 2.2776-2.482 0-4.578-1.748-4.578-4.4185 0-2.9836 2.039-4.4982 5.583-4.4982zm3.311 3.4676-.568-.2391c-.646-.2719-1.339-.4131-2.039-.4157-1.136 0-1.834.5352-1.834 1.4804s.71 1.452 1.925 1.452c1.448 0 2.51-.8598 2.51-2.1922z"/><path d="m124.887 11.5587h5.162v-4.86261h4.288v14.04701h-4.288v-5.1872h-5.168v5.1872h-4.287v-14.04701h4.287z"/><path d="m147.904 14.0754 4.14 1.4235c-.977 3.7011-3.407 5.5402-7.383 5.5402-4.577 0-7.683-2.9665-7.683-7.4021-.001-.9644.19-1.9192.563-2.8083.373-.88899.919-1.69419 1.607-2.36812s1.504-1.20294 2.399-1.55585c.895-.35292 1.852-.5226 2.813-.49904 3.578 0 6.247 1.81068 6.946 5.01071l-3.902 1.3323c-.108-.6801-.464-1.2958-.999-1.7281-.535-.4322-1.211-.6503-1.897-.6121-.418.001-.832.0872-1.216.2535s-.73.4092-1.018.7138c-.287.3047-.509.6648-.654 1.0584-.144.3936-.207.8125-.184 1.2313-.026.4401.039.8808.191 1.2943.153.4135.389.7908.694 1.1081.306.3173.673.5677 1.08.7354.406.1676.843.2489 1.283.2387 1.919-.0057 2.97-1.2185 3.22-2.9666z"/><path d="m13.6296 0h-13.6296v4.29893h3.74814v16.44417h4.72493v-7.704h5.15653c4.5432 0 6.9397-3.17149 6.9397-6.548.0171-3.49608-2.317-6.4911-6.9397-6.4911zm-5.15653 8.74021v-4.44128h4.87823c1.5334 0 2.5102.79716 2.5102 2.22064 0 1.42349-.9768 2.22064-2.5102 2.22064z"/><path d="m61.0493 0h-11.0741v4.29893h2.6067l-6.4513 16.44417h5.1678l1.5958-4.299h9.518l1.5958 4.299h5.1679zm-6.5309 12.1509 3.1632-8.47261 3.1632 8.47261z"/><path d="m30.4615.659341-7.2527 1.912089v2.57143l7.2527-1.03466z"/></g></svg>