<svg width="32" height="32" viewBox="0 0 32 32" fill="none" xmlns="http://www.w3.org/2000/svg">
<g clip-path="url(#clip0_1738_21)">
<path d="M19.1767 12.9195H22.6699V20.5086L26.8904 12.9195H31.616V24.448H28.1181V16.8589L23.8837 24.448H19.1767V12.9195Z" fill="#E40038"/>
<path d="M11.3749 7.42401H0.255981V10.9522H3.31368V24.448H7.16824V18.1253H11.3749C15.0812 18.1253 17.0363 15.5224 17.0363 12.7513C17.0502 9.88205 15.1461 7.42401 11.3749 7.42401ZM7.16824 14.5972V10.9522H11.1479C12.3988 10.9522 13.1956 11.6064 13.1956 12.7747C13.1956 13.9429 12.3988 14.5972 11.1479 14.5972H7.16824Z" fill="#E40038"/>
<path d="M25.1063 7.96514L19.1895 9.5344V11.6448L25.1063 10.7956V7.96514Z" fill="#E40038"/>
</g>
<defs>
<clipPath id="clip0_1738_21">
<rect width="32" height="32" fill="white"/>
</clipPath>
</defs>
</svg>
